Coordinates
version=1
nRows=24
nColumns=19
inDegrees=yes

Units are S.I. units (second, meters, Newtons, ...)
If the header above contains a line with 'inDegrees', this indicates whether rotational values are in degrees (yes) or radians (no).

endheader
time	pelvis_tilt	pelvis_list	pelvis_rotation	pelvis_tx	pelvis_ty	pelvis_tz	hip_flexion_r	hip_adduction_r	hip_rotation_r	knee_angle_r	knee_angle_r_beta	ankle_angle_r	hip_flexion_l	hip_adduction_l	hip_rotation_l	knee_angle_l	knee_angle_l_beta	ankle_angle_l
     16.80666667	      0.94563391	      7.32663971	      5.48753947	      2.15534924	      1.05232515	      1.02357024	    -17.70719384	     -6.92341754	    -15.45022185	     48.43100124	      0.84528043	    -11.71186200	     21.06897462	      9.92663063	     -1.53913616	     25.88783614	      0.45182798	     -1.32265105
     16.81333333	      1.60389646	      7.72518669	      5.69031064	      2.15489424	      1.04773170	      1.02299641	    -17.42752014	     -7.06754204	    -14.38225370	     51.46973471	      0.89831634	    -11.21574636	     20.48262486	     10.39195015	     -1.52851258	     27.84665885	      0.48601588	      0.33403881
     16.82000000	      2.45878679	      8.21050480	      6.00764778	      2.15431055	      1.04305077	      1.02242384	    -17.38836119	     -7.23288833	    -13.61674568	     54.44340361	      0.95021665	    -10.78541260	     19.62797345	     10.99119642	     -1.27064977	     29.85066301	      0.52099235	      2.25531695
     16.82666667	      2.87348074	      8.45872295	      6.21444699	      2.15342516	      1.03769345	      1.02204457	    -16.65262346	     -7.19998533	    -12.57496543	     57.56929539	      1.00477375	    -10.32493871	     19.35194587	     11.29897954	     -1.20834546	     32.06221991	      0.55959130	      4.25733733
     16.83333333	      3.65917264	      8.90296688	      6.55840997	      2.15243363	      1.03260658	      1.02159258	    -16.41929809	     -7.33501531	    -12.02302560	     60.54175846	      1.05665302	     -9.93093753	     18.53693791	     11.84787865	     -0.88513979	     34.12181839	      0.59553808	      6.42872396
     16.84000000	      4.30505390	      9.28124737	      6.90182155	      2.15128811	      1.02737738	      1.02119718	    -15.95830291	     -7.43627061	    -11.51349181	     63.49828400	      1.10825413	     -9.53028185	     17.84795860	     12.31969294	     -0.56366613	     36.16390949	      0.63117929	      8.60055652
     16.84666667	      4.92630162	      9.65261378	      7.25653565	      2.14992378	      1.02225340	      1.02081730	    -15.42510618	     -7.58790414	    -11.15194419	     66.39732736	      1.15885198	     -9.16891495	     17.12322376	     12.77443768	     -0.20384028	     38.08834379	      0.66476701	     10.75202268
     16.85333333	      4.67928095	      9.71264658	      7.70009834	      2.14828362	      1.01634595	      1.02033759	    -13.73821344	     -7.55484477	    -10.66687793	     69.44060627	      1.21196721	     -8.70640028	     17.42709682	     12.98722173	      0.14640857	     40.11519431	      0.70014222	     12.75548508
     16.86000000	      5.12586920	     10.04473057	      8.06022526	      2.14657969	      1.01150956	      1.01998657	    -12.90313461	     -7.81175704	    -10.47595098	     72.21123872	      1.26032387	     -8.23768920	     16.75766404	     13.39164161	      0.56066048	     41.76398986	      0.72891913	     14.65838567
     16.86666667	      4.96661297	     10.18454874	      8.45689573	      2.14469225	      1.00638355	      1.01955952	    -11.24934361	     -8.01059864	    -10.19461513	     75.01817367	      1.30931413	     -7.81904452	     16.74738731	     13.64273896	      0.93493763	     43.36938371	      0.75693854	     16.38096467
     16.87333333	      4.98705104	     10.40600641	      8.78778244	      2.14277642	      1.00187513	      1.01918815	     -9.78399122	     -8.37414370	    -10.01276294	     77.65539001	      1.35534224	     -7.39026447	     16.39753859	     13.93003374	      1.31472587	     44.70897100	      0.78031875	     17.93256337
     16.88000000	      5.39458715	     10.61132334	      9.03540479	      2.14078078	      0.99830962	      1.01890949	     -8.72572182	     -8.71580414	     -9.88065492	     80.03375889	      1.39685261	     -6.97782877	     15.49549468	     14.11063101	      1.73513775	     45.80083720	      0.79937541	     19.40378275
     16.88666667	      4.72391822	     10.59344133	      9.27747381	      2.13874708	      0.99407700	      1.01858477	     -6.25636351	     -9.02753101	     -9.43207985	     82.52472103	      1.44032810	     -6.55142658	     15.77837648	     14.16753803	      1.98765506	     46.83865961	      0.81748883	     20.54878531
     16.89333333	      4.71068060	     10.76341643	      9.38749997	      2.13678891	      0.99106977	      1.01836125	     -4.56518988	     -9.54091532	     -9.12021939	     84.69615926	      1.47822684	     -6.19615209	     15.13083889	     14.29230642	      2.24757991	     47.51947889	      0.82937137	     21.58397496
     16.90000000	      4.45275106	     10.76177776	      9.46053245	      2.13489275	      0.98840263	      1.01828103	     -2.50153961	     -9.86480410	     -8.65139012	     86.69153554	      1.51305273	     -5.82195112	     14.67166223	     14.23716238	      2.48919247	     48.03182331	      0.83831346	     22.54368385
     16.90666667	      4.81629283	     10.74445994	      9.61096577	      2.13303187	      0.98695338	      1.01814661	     -1.21396981	    -10.10960086	     -8.48639559	     88.28865567	      1.54092773	     -5.57615203	     13.39179349	     14.06719881	      2.93496748	     48.33525254	      0.84360930	     23.29245524
     16.91333333	      4.22940100	     10.77954149	      9.40065773	      2.13147915	      0.98495450	      1.01838656	      1.35143563	    -10.60621441	     -7.71876113	     89.97492022	      1.57035860	     -5.20037507	     13.04146860	     13.96947863	      2.78913620	     48.35093620	      0.84388303	     24.07088943
     16.92000000	      4.30538139	     10.83121981	      9.25872773	      2.13004936	      0.98430843	      1.01858213	      3.05922750	    -10.99786866	     -7.21967306	     91.21538771	      1.59200884	     -4.89503495	     11.79081626	     13.81664571	      2.90500271	     48.09638240	      0.83944023	     24.65161295
     16.92666667	      4.29285614	     10.80210448	      9.07559390	      2.12872786	      0.98407761	      1.01891975	      4.89451714	    -11.29165834	     -6.68390338	     92.23429343	      1.60979210	     -4.60514111	     10.55049812	     13.57270453	      2.98782194	     47.66096690	      0.83184080	     25.13323171
     16.93333333	      4.27956719	     10.75459238	      8.85394853	      2.12763276	      0.98438505	      1.01931589	      6.70473550	    -11.54999226	     -6.14896748	     92.98520451	      1.62289797	     -4.30792263	      9.19272671	     13.30279460	      3.05431193	     47.00260601	      0.82035023	     25.51614737
     16.94000000	      4.26704899	     10.64464176	      8.63244430	      2.12662401	      0.98521137	      1.01968953	      8.48198489	    -11.72618934	     -5.66601106	     93.46630098	      1.63129469	     -4.01245429	      7.75548950	     12.99188734	      3.18352979	     46.18044647	      0.80600084	     25.79638521
     16.94666667	      4.18144331	     10.41052826	      8.52249899	      2.12587753	      0.98653286	      1.02005851	     10.24511971	    -11.72986889	     -5.32512139	     93.64964755	      1.63449469	     -3.67572579	      6.30333545	     12.58118675	      3.48765980	     45.18965611	      0.78870829	     25.88402769
     16.95333333	      4.15255820	     10.38923968	      7.98278361	      2.12532523	      0.98824842	      1.02071895	     12.02639996	    -11.91987713	     -4.58826082	     93.68957791	      1.63519161	     -3.34861467	      4.67124336	     12.35208432	      3.31800866	     43.88717318	      0.76597567	     25.79474975
     16.96000000	      4.07731325	     10.18755949	      7.62940655	      2.12499038	      0.99048047	      1.02121854	     13.70935997	    -11.90695052	     -4.13915764	     93.39088777	      1.62997848	     -2.98865638	      3.03850284	     11.98613262	      3.40270059	     42.49163927	      0.74161901	     25.54360252
